<svg id="Layer_1" enable-background="new 0 0 480.012 480.012" height="512" viewBox="0 0 480.012 480.012" width="512" xmlns="http://www.w3.org/2000/svg"><g><path d="m87.01 209.009v-64.66c0-3.564-4.309-5.348-6.828-2.828l-68.66 68.66c-2.52 2.52-.735 6.828 2.828 6.828h64.66c4.418 0 8-3.582 8-8z"/><path d="m338.01 130.012h-231c-2.209 0-4 1.791-4 4v74.997c0 13.255-10.745 24-24 24h-75c-2.209 0-4 1.791-4 4v235.003c0 4.418 3.582 8 8 8h346c4.418 0 8-3.582 8-8v-318c0-13.255-10.746-24-24-24zm-272 162c0-4.418 3.582-8 8-8h116c4.418 0 8 3.582 8 8s-3.582 8-8 8h-116c-4.418 0-8-3.582-8-8zm142.935 158h-105.935c-4.418 0-8-3.582-8-8s3.582-8 8-8h105.936c4.418 0 8 3.582 8 8s-3.583 8-8.001 8zm64.065 0h-24.5c-4.418 0-8-3.582-8-8s3.582-8 8-8h24.5c4.418 0 8 3.582 8 8s-3.582 8-8 8zm0-50h-170c-4.418 0-8-3.582-8-8s3.582-8 8-8h170c4.418 0 8 3.582 8 8s-3.582 8-8 8zm0-50h-140c-4.418 0-8-3.582-8-8s3.582-8 8-8h140c4.418 0 8 3.582 8 8s-3.582 8-8 8zm15-100h-150c-4.418 0-8-3.582-8-8s3.582-8 8-8h150c4.418 0 8 3.582 8 8s-3.582 8-8 8zm0-50h-150c-4.418 0-8-3.582-8-8s3.582-8 8-8h150c4.418 0 8 3.582 8 8s-3.582 8-8 8z"/><path d="m478.99 166.462c-3.388 63.254-96.794 63.394-100.19 0-1.35-25.14-1.35-50.64 0-75.79 2.537-47.4 97.646-47.516 100.19-.01 1.35 25.15 1.35 50.65 0 75.8z"/><path d="m460.653 38.761c.477 2.921-2.38 5.27-5.195 4.358-16.746-5.422-36.254-5.388-52.895-.03-2.817.907-5.672-1.444-5.191-4.365 2.122-12.884 13.312-22.713 26.798-22.713h9.68c13.498.001 24.696 9.847 26.803 22.75z"/><path d="m381.012 46.997v4.776c-.001 1.709-.739 3.337-2.013 4.476-9.716 8.687-14.481 18.96-15.911 31.209-.349 2.988-2.812 5.28-5.819 5.351l-349.259 8.203c-4.068 0-8-3.183-8-8.14v-43.86c0-4.418 3.582-8 8-8h367.001c3.31 0 5.996 2.674 6.001 5.985z"/><path d="m400.14 7.335c-8.197 5.516-7.891 8.677-11.333 8.677h-34.427c-8.945 0-17.48 2.973-24.756 8.218-.691.498-1.513.782-2.365.782h-12.255c-3.561 0-5.343-4.301-2.837-6.831 11.309-11.419 26.256-18.181 42.213-18.181h43.576c3.978-.002 5.485 5.114 2.184 7.335z"/></g></svg>