<svg width="49" height="48" viewBox="0 0 49 48" fill="none" xmlns="http://www.w3.org/2000/svg">
<path d="M30.5 22.2676C31.0978 22.6134 31.5 23.2597 31.5 24C31.5 24.7403 31.0978 25.3866 30.5 25.7324M30.5 19.1C32.7822 19.5633 34.5 21.581 34.5 24C34.5 26.4189 32.7822 28.4367 30.5 28.9M20.0332 19.6021L24.3 16.4034C25.6185 15.415 27.5 16.3554 27.5 18.0027V29.9973C27.5 31.6446 25.6185 32.585 24.3 31.5966L20.0332 28.3979C19.6871 28.1384 19.2662 27.9982 18.8336 27.9982H16.5C15.3954 27.9982 14.5 27.1032 14.5 25.9991V22.0009C14.5 20.8968 15.3954 20.0018 16.5 20.0018H18.8336C19.2662 20.0018 19.6871 19.8616 20.0332 19.6021Z" stroke="#F5F5F5" stroke-width="1.5" stroke-linecap="round"/>
</svg>
