<svg width="21" height="20" viewBox="0 0 21 20" fill="none" xmlns="http://www.w3.org/2000/svg">
<path fill-rule="evenodd" clip-rule="evenodd" d="M6.5833 2.7085C6.83561 2.7085 7.06317 2.86021 7.16022 3.09311L11.3269 13.0931C11.4596 13.4117 11.309 13.7777 10.9903 13.9104C10.6717 14.0432 10.3058 13.8925 10.173 13.5739L8.94441 10.6252H4.22218L2.99355 13.5739C2.86079 13.8925 2.49487 14.0432 2.17624 13.9104C1.85762 13.7777 1.70694 13.4117 1.83971 13.0931L6.00637 3.09311C6.10342 2.86021 6.33098 2.7085 6.5833 2.7085ZM6.5833 4.9585L8.42357 9.37516H4.74302L6.5833 4.9585ZM19.7083 10.0002V13.3335C19.7083 13.6787 19.4285 13.9585 19.0833 13.9585C18.7381 13.9585 18.4583 13.6787 18.4583 13.3335V12.8869C17.7502 13.5515 16.7976 13.9585 15.75 13.9585C13.5638 13.9585 11.7916 12.1863 11.7916 10.0002C11.7916 7.81404 13.5638 6.04183 15.75 6.04183C16.7976 6.04183 17.7502 6.44885 18.4583 7.11339V6.66683C18.4583 6.32165 18.7381 6.04183 19.0833 6.04183C19.4285 6.04183 19.7083 6.32165 19.7083 6.66683V10.0002ZM18.4583 10.0002C18.4583 11.4959 17.2457 12.7085 15.75 12.7085C14.2542 12.7085 13.0416 11.4959 13.0416 10.0002C13.0416 8.50439 14.2542 7.29183 15.75 7.29183C17.2457 7.29183 18.4583 8.50439 18.4583 10.0002Z" fill="#F5F5F5"/>
</svg>
