<svg width="21" height="20" viewBox="0 0 21 20" fill="none" xmlns="http://www.w3.org/2000/svg">
<path d="M15.25 8.55648C15.7482 8.84465 16.0833 9.38327 16.0833 10.0002C16.0833 10.6171 15.7482 11.1557 15.25 11.4439M15.25 5.91683C17.1519 6.30289 18.5833 7.98435 18.5833 10.0002C18.5833 12.016 17.1519 13.6974 15.25 14.0835M6.52769 6.33523L10.0833 3.6697C11.1821 2.84603 12.75 3.62965 12.75 5.00243V14.9979C12.75 16.3707 11.1821 17.1543 10.0833 16.3306L6.52769 13.6651C6.23925 13.4489 5.88848 13.332 5.52798 13.332H3.58334C2.66286 13.332 1.91667 12.5861 1.91667 11.6661V8.33425C1.91667 7.4142 2.66286 6.66834 3.58334 6.66834H5.52798C5.88848 6.66834 6.23925 6.55146 6.52769 6.33523Z" stroke="#F5F5F5" stroke-linecap="round"/>
</svg>
