<svg width="24" height="25" viewBox="0 0 24 25" fill="none" xmlns="http://www.w3.org/2000/svg">
<path d="M2 6.5H1.35H2ZM6 2.5V1.85V2.5ZM6 22.5V23.15V22.5ZM2 18.5H2.65H2ZM22 18.5H22.65H22ZM18 22.5V21.85V22.5ZM22 6.5H21.35H22ZM18 2.5V3.15V2.5ZM16.35 7.5L16.35 8.15L17.65 8.15V7.5H16.35ZM17.65 3.5L17.65 2.85L16.35 2.85V3.5L17.65 3.5ZM12.65 3.5V2.85L11.35 2.85V3.5H12.65ZM11.35 21.5V22.15H12.65V21.5H11.35ZM16.35 21.5L16.35 22.15H17.65V21.5H16.35ZM17.65 17.5L17.65 16.85L16.35 16.85V17.5H17.65ZM6.35 7.5V8.15L7.65 8.15L7.65 7.5H6.35ZM7.65 3.5V2.85L6.35 2.85L6.35 3.5L7.65 3.5ZM6.35 21.5V22.15H7.65L7.65 21.5H6.35ZM7.65 17.5V16.85L6.35 16.85L6.35 17.5H7.65ZM22 8.15C22.359 8.15 22.65 7.85899 22.65 7.5C22.65 7.14102 22.359 6.85 22 6.85V8.15ZM2 6.85C1.64102 6.85 1.35 7.14102 1.35 7.5C1.35 7.85898 1.64102 8.15 2 8.15L2 6.85ZM22 18.15C22.359 18.15 22.65 17.859 22.65 17.5C22.65 17.141 22.359 16.85 22 16.85V18.15ZM2 16.85C1.64102 16.85 1.35 17.141 1.35 17.5C1.35 17.859 1.64102 18.15 2 18.15L2 16.85ZM21.35 6.5V18.5H22.65V6.5H21.35ZM18 21.85H6V23.15H18V21.85ZM2.65 18.5L2.65 6.5H1.35L1.35 18.5H2.65ZM6 3.15L18 3.15V1.85L6 1.85V3.15ZM2.65 6.5C2.65 4.64985 4.14985 3.15 6 3.15V1.85C3.43188 1.85 1.35 3.93188 1.35 6.5H2.65ZM6 21.85C4.14985 21.85 2.65 20.3502 2.65 18.5H1.35C1.35 21.0681 3.43188 23.15 6 23.15V21.85ZM21.35 18.5C21.35 20.3502 19.8502 21.85 18 21.85V23.15C20.5681 23.15 22.65 21.0681 22.65 18.5H21.35ZM22.65 6.5C22.65 3.93188 20.5681 1.85 18 1.85V3.15C19.8502 3.15 21.35 4.64985 21.35 6.5H22.65ZM17.65 7.5L17.65 3.5L16.35 3.5L16.35 7.5H17.65ZM17.65 21.5L17.65 17.5H16.35L16.35 21.5H17.65ZM7.65 7.5L7.65 3.5L6.35 3.5L6.35 7.5H7.65ZM7.65 21.5L7.65 17.5H6.35L6.35 21.5H7.65ZM22 6.85L2 6.85L2 8.15L22 8.15V6.85ZM22 16.85L2 16.85L2 18.15L22 18.15V16.85ZM12.65 21.5L12.65 3.5H11.35L11.35 21.5H12.65Z" fill="#9C9CB8"/>
</svg>
