<svg width="21" height="20" viewBox="0 0 21 20" fill="none" xmlns="http://www.w3.org/2000/svg">
<path d="M19.0833 11.6665L16.6341 9.9031C15.3615 8.98679 13.6222 9.08149 12.4566 10.1306L9.0434 13.2024C7.87775 14.2515 6.13849 14.3462 4.86583 13.4299L2.41666 11.6665M5.74999 18.3332H15.75C17.5909 18.3332 19.0833 16.8408 19.0833 14.9998V4.99984C19.0833 3.15889 17.5909 1.6665 15.75 1.6665H5.74999C3.90904 1.6665 2.41666 3.15889 2.41666 4.99984V14.9998C2.41666 16.8408 3.90904 18.3332 5.74999 18.3332ZM9.91666 7.08317C9.91666 8.23376 8.98392 9.1665 7.83332 9.1665C6.68273 9.1665 5.74999 8.23376 5.74999 7.08317C5.74999 5.93258 6.68273 4.99984 7.83332 4.99984C8.98392 4.99984 9.91666 5.93258 9.91666 7.08317Z" stroke="#F5F5F5" stroke-linecap="round"/>
</svg>
