<svg width="20" height="20" viewBox="0 0 20 20" fill="none" xmlns="http://www.w3.org/2000/svg">
<path d="M10.625 10.8335C10.625 11.1787 10.3452 11.4585 10 11.4585C9.65482 11.4585 9.375 11.1787 9.375 10.8335C9.375 10.4883 9.65482 10.2085 10 10.2085C10.3452 10.2085 10.625 10.4883 10.625 10.8335Z" fill="#F5F5F5"/>
<path d="M13.5355 7.2978C12.6307 6.39298 11.3807 5.83333 9.99998 5.83333C8.61926 5.83333 7.36926 6.39298 6.46444 7.2978M8.23221 9.06557C8.68462 8.61316 9.30962 8.33333 9.99998 8.33333C10.6903 8.33333 11.3153 8.61316 11.7677 9.06557M5.83334 17.5C8.97291 16.3961 10.7744 16.3817 14.1667 17.5M10 16.6667V14.1667M1.66667 5.83333L1.66667 10.8333C1.66667 12.6743 3.15906 14.1667 5 14.1667L15 14.1667C16.841 14.1667 18.3333 12.6743 18.3333 10.8333V5.83333C18.3333 3.99239 16.841 2.5 15 2.5L5.00001 2.5C3.15906 2.5 1.66667 3.99238 1.66667 5.83333Z" stroke="#F5F5F5" stroke-linecap="round" stroke-linejoin="round"/>
</svg>
