<svg width="3" height="11" viewBox="0 0 3 11" fill="none" xmlns="http://www.w3.org/2000/svg">
<path fill-rule="evenodd" clip-rule="evenodd" d="M2.24996 1.20817C2.24996 1.78347 1.78359 2.24984 1.20829 2.24984C0.632996 2.24984 0.166626 1.78347 0.166626 1.20817C0.166626 0.632874 0.632996 0.166504 1.20829 0.166504C1.78359 0.166504 2.24996 0.632874 2.24996 1.20817ZM2.24996 5.37484C2.24996 5.95013 1.78359 6.4165 1.20829 6.4165C0.632997 6.4165 0.166627 5.95013 0.166627 5.37484C0.166627 4.79954 0.632997 4.33317 1.20829 4.33317C1.78359 4.33317 2.24996 4.79954 2.24996 5.37484ZM1.20829 10.5832C1.78359 10.5832 2.24996 10.1168 2.24996 9.5415C2.24996 8.96621 1.78359 8.49984 1.20829 8.49984C0.632997 8.49984 0.166628 8.96621 0.166628 9.5415C0.166628 10.1168 0.632998 10.5832 1.20829 10.5832Z" fill="#F5F5F5"/>
</svg>
