<svg width="14" height="15" viewBox="0 0 14 15" fill="none" xmlns="http://www.w3.org/2000/svg">
<path d="M11.667 13.4653H2.91699C1.95049 13.4653 1.16699 12.6817 1.16699 11.7153V3.54858C1.16699 2.58209 1.95049 1.79858 2.91699 1.79858H8.75033C9.71682 1.79858 10.5003 2.58209 10.5003 3.54858V5.29858M11.667 13.4653C11.0227 13.4653 10.5003 12.9429 10.5003 12.2986V5.29858M11.667 13.4653C12.3113 13.4653 12.8337 12.9429 12.8337 12.2986V6.46525C12.8337 5.82092 12.3113 5.29858 11.667 5.29858H10.5003M3.50033 4.71525H8.16699M3.50033 7.63192H8.16699M3.50033 10.5486H5.83366" stroke="#F5F5F5" stroke-width="1.05" stroke-linecap="round" stroke-linejoin="round"/>
</svg>
