<svg width="21" height="21" viewBox="0 0 21 21" fill="none" xmlns="http://www.w3.org/2000/svg">
<path fill-rule="evenodd" clip-rule="evenodd" d="M1.99512 5.04293C1.99512 2.8568 3.76732 1.08459 5.95345 1.08459H15.9535C18.1396 1.08459 19.9118 2.8568 19.9118 5.04293V15.0429C19.9118 17.2291 18.1396 19.0013 15.9535 19.0013H5.95345C3.76732 19.0013 1.99512 17.2291 1.99512 15.0429V5.04293ZM5.95345 2.33459C4.45768 2.33459 3.24512 3.54716 3.24512 5.04293V12.1263L5.34639 13.5271C6.66847 14.4085 8.42886 14.2342 9.55241 13.1106L12.3545 10.3086C13.478 9.18501 15.2384 9.0107 16.5605 9.89208L18.5446 11.2148C18.5851 11.2418 18.6242 11.2704 18.6618 11.3005V5.04293C18.6618 3.54716 17.4492 2.33459 15.9535 2.33459H5.95345ZM8.03597 9.2097C9.18656 9.2097 10.1193 8.27696 10.1193 7.12636C10.1193 5.97577 9.18656 5.04303 8.03597 5.04303C6.88538 5.04303 5.95264 5.97577 5.95264 7.12636C5.95264 8.27696 6.88538 9.2097 8.03597 9.2097Z" fill="#F5F5F5"/>
</svg>
