<svg width="18" height="14" viewBox="0 0 18 14" fill="none" xmlns="http://www.w3.org/2000/svg">
<path fill-rule="evenodd" clip-rule="evenodd" d="M5.27753 3.33504L8.83317 0.66952C9.9319 -0.154152 11.4998 0.629463 11.4998 2.00225V11.9977C11.4998 13.3705 9.9319 14.1541 8.83317 13.3304L5.27753 10.6649C4.98909 10.4487 4.63831 10.3318 4.27782 10.3318H2.33317C1.4127 10.3318 0.666504 9.58595 0.666504 8.66589V5.33407C0.666504 4.41401 1.4127 3.66816 2.33317 3.66816H4.27782C4.63831 3.66816 4.98908 3.55128 5.27753 3.33504ZM13.4995 2.3041C13.1612 2.23543 12.8313 2.45399 12.7626 2.79227C12.6939 3.13055 12.9125 3.46045 13.2508 3.52911C14.8671 3.85721 16.0835 5.28722 16.0835 6.99992C16.0835 8.71263 14.8671 10.1426 13.2508 10.4707C12.9125 10.5394 12.6939 10.8693 12.7626 11.2076C12.8313 11.5459 13.1612 11.7644 13.4995 11.6958C15.6869 11.2517 17.3335 9.31882 17.3335 6.99992C17.3335 4.68103 15.6869 2.74812 13.4995 2.3041ZM13.6881 5.01522C13.3893 4.84238 13.007 4.94449 12.8341 5.24327C12.6613 5.54206 12.7634 5.92439 13.0622 6.09723C13.3752 6.27828 13.5835 6.61515 13.5835 6.99992C13.5835 7.3847 13.3752 7.72156 13.0622 7.90262C12.7634 8.07546 12.6613 8.45779 12.8341 8.75657C13.007 9.05536 13.3893 9.15746 13.6881 8.98462C14.3714 8.58933 14.8335 7.84895 14.8335 6.99992C14.8335 6.1509 14.3714 5.41052 13.6881 5.01522Z" fill="#F5F5F5"/>
</svg>
