<svg width="18" height="18" viewBox="0 0 18 18" fill="none" xmlns="http://www.w3.org/2000/svg">
<path d="M7.86657 17.3334H10.1331C13.0872 17.3334 14.5642 17.3334 15.5498 16.3252C16.3114 15.5461 16.9711 10.3092 17.1983 8.27195C17.3483 6.6781 17.4233 5.88118 17.1507 5.55175C17.0032 5.37354 16.8026 5.26436 16.5882 5.24552C16.1918 5.2107 15.6939 5.77744 14.6983 6.9109L14.6983 6.91091C14.1834 7.4971 13.9259 7.79019 13.6387 7.83558C13.4796 7.86073 13.3174 7.83487 13.1705 7.76092C12.9052 7.62745 12.7284 7.26512 12.3748 6.54045L10.5107 2.72073C9.84246 1.35137 9.50833 0.666687 8.99984 0.666687C8.49134 0.666687 8.15721 1.35137 7.48895 2.72073L7.48895 2.72074L5.6249 6.54045C5.27125 7.26512 5.09443 7.62745 4.82922 7.76092C4.68227 7.83487 4.52012 7.86073 4.36098 7.83558C4.07377 7.79019 3.81631 7.4971 3.3014 6.91091C2.30574 5.77744 1.80791 5.2107 1.41149 5.24552C1.19705 5.26436 0.996486 5.37354 0.848992 5.55175C0.576334 5.88118 0.651337 6.6781 0.801344 8.27195L0.992339 10.3013C1.30705 13.6452 1.4644 15.3171 2.44992 16.3252C3.43543 17.3334 4.91248 17.3334 7.86657 17.3334Z" fill="#F5B600"/>
</svg>
