<svg width="18" height="14" viewBox="0 0 18 14" fill="none" xmlns="http://www.w3.org/2000/svg">
<path fill-rule="evenodd" clip-rule="evenodd" d="M0.668457 3.66695C0.668457 1.826 2.16084 0.333618 4.00179 0.333618H9.00179C10.8427 0.333618 12.3351 1.826 12.3351 3.66695V10.3336C12.3351 12.1746 10.8427 13.667 9.00179 13.667H4.00179C2.16084 13.667 0.668457 12.1746 0.668457 10.3336V3.66695ZM9.83512 4.50028C9.83512 5.42076 9.08893 6.16695 8.16846 6.16695C7.24798 6.16695 6.50179 5.42076 6.50179 4.50028C6.50179 3.57981 7.24798 2.83362 8.16846 2.83362C9.08893 2.83362 9.83512 3.57981 9.83512 4.50028ZM14.4513 10.592L13.5838 9.66677V4.33344L14.4513 3.40817C15.4846 2.30592 17.3338 3.03718 17.3338 4.54807V9.45214C17.3338 10.963 15.4846 11.6943 14.4513 10.592Z" fill="#F5F5F5"/>
</svg>
