<svg width="13" height="12" viewBox="0 0 13 12" fill="none" xmlns="http://www.w3.org/2000/svg">
<path fill-rule="evenodd" clip-rule="evenodd" d="M7.125 1C7.125 0.654822 6.84518 0.375 6.5 0.375C6.15482 0.375 5.875 0.654822 5.875 1V5.375H1.5C1.15482 5.375 0.875 5.65482 0.875 6C0.875 6.34518 1.15482 6.625 1.5 6.625H5.875V11C5.875 11.3452 6.15482 11.625 6.5 11.625C6.84518 11.625 7.125 11.3452 7.125 11V6.625H11.5C11.8452 6.625 12.125 6.34518 12.125 6C12.125 5.65482 11.8452 5.375 11.5 5.375H7.125V1Z" fill="#F5F5F5"/>
</svg>
