<svg width="36" height="36" viewBox="0 0 36 36" fill="none" xmlns="http://www.w3.org/2000/svg">
<path d="M8.50004 34.6668C11.6125 34.6668 14.2268 32.5339 14.961 29.65C15.1881 28.7579 15.9129 28.0002 16.8334 28.0002H28.5M8.50004 34.6668C4.81814 34.6668 1.83337 31.6821 1.83337 28.0002V6.3335C1.83337 3.57207 4.07195 1.3335 6.83337 1.3335H23.5C26.2615 1.3335 28.5 3.57207 28.5 6.3335V28.0002M8.50004 34.6668H28.5C31.6125 34.6668 34.2268 32.5339 34.961 29.65C35.1881 28.7579 34.4205 28.0002 33.5 28.0002H28.5M10.1667 19.6668L12.6667 17.1668M20.1667 13.8335C20.1667 16.1347 18.3012 18.0002 16 18.0002C13.6989 18.0002 11.8334 16.1347 11.8334 13.8335C11.8334 11.5323 13.6989 9.66683 16 9.66683C18.3012 9.66683 20.1667 11.5323 20.1667 13.8335Z" stroke="#2563EB" stroke-width="2" stroke-linecap="round"/>
</svg>
