<svg width="36" height="26" viewBox="0 0 36 26" fill="none" xmlns="http://www.w3.org/2000/svg">
<path d="M25.0711 5.9284C26.8808 7.73804 28 10.238 28 12.9995C28 15.7609 26.8808 18.2609 25.0711 20.0705M29.7852 1.21436C32.8012 4.23043 34.6667 8.3971 34.6667 12.9995C34.6667 17.6018 32.8012 21.7685 29.7852 24.7846M6.21493 24.7846C3.19885 21.7685 1.33337 17.6018 1.33337 12.9995C1.33337 8.39709 3.19885 4.23043 6.21493 1.21436M10.929 20.0705C9.11933 18.2609 8.00004 15.7609 8.00004 12.9995C8.00004 10.238 9.11933 7.73804 10.929 5.9284M21.3334 12.9994C21.3334 14.8404 19.841 16.3328 18 16.3328C16.1591 16.3328 14.6667 14.8404 14.6667 12.9994C14.6667 11.1585 16.1591 9.6661 18 9.6661C19.841 9.6661 21.3334 11.1585 21.3334 12.9994Z" stroke="#2563EB" stroke-width="2" stroke-linecap="round" stroke-linejoin="round"/>
</svg>
