<svg width="24" height="24" viewBox="0 0 24 24" fill="none" xmlns="http://www.w3.org/2000/svg">
<path d="M13.0606 2H10.9394C9.76786 2 8.81816 2.89543 8.81816 4C8.81816 5.26401 7.46573 6.06764 6.35555 5.4633L6.24279 5.40192C5.22822 4.84963 3.9309 5.17738 3.34515 6.13397L2.28454 7.86602C1.69878 8.8226 2.04639 10.0458 3.06096 10.5981C4.17167 11.2027 4.17167 12.7973 3.06096 13.4019C2.04639 13.9542 1.69878 15.1774 2.28453 16.134L3.34514 17.866C3.9309 18.8226 5.22822 19.1504 6.24278 18.5981L6.35555 18.5367C7.46573 17.9324 8.81816 18.736 8.81816 20C8.81816 21.1046 9.76786 22 10.9394 22H13.0606C14.2321 22 15.1818 21.1046 15.1818 20C15.1818 18.736 16.5343 17.9324 17.6444 18.5367L17.7572 18.5981C18.7718 19.1504 20.0691 18.8226 20.6548 17.866L21.7154 16.134C22.3012 15.1774 21.9536 13.9542 20.939 13.4019C19.8283 12.7973 19.8283 11.2027 20.939 10.5981C21.9536 10.0458 22.3012 8.82262 21.7154 7.86603L20.6548 6.13398C20.0691 5.1774 18.7718 4.84965 17.7572 5.40193L17.6444 5.46331C16.5343 6.06765 15.1818 5.26402 15.1818 4C15.1818 2.89543 14.2321 2 13.0606 2Z" stroke="#F5F5F5" stroke-width="1.5" stroke-linejoin="round"/>
<circle cx="12" cy="12" r="3" stroke="#F5F5F5" stroke-width="1.5"/>
</svg>
