<svg width="20" height="21" viewBox="0 0 20 21" fill="none" xmlns="http://www.w3.org/2000/svg">
<path fill-rule="evenodd" clip-rule="evenodd" d="M14.3333 2.04639H5.66663C3.45749 2.04639 1.66663 3.83725 1.66663 6.04639V14.7131C1.66663 16.9222 3.45749 18.7131 5.66663 18.7131H14.3333C16.5424 18.7131 18.3333 16.9222 18.3333 14.7131V6.04639C18.3333 3.83725 16.5424 2.04639 14.3333 2.04639ZM11.2247 5.77111C11.4688 5.52703 11.8645 5.52703 12.1086 5.77111L13.7752 7.43778C13.954 7.61653 14.0075 7.88535 13.9107 8.1189C13.814 8.35244 13.5861 8.50472 13.3333 8.50472H8.33329C7.758 8.50472 7.29163 8.97109 7.29163 9.54639V10.3797C7.29163 10.7249 7.0118 11.0047 6.66663 11.0047C6.32145 11.0047 6.04163 10.7249 6.04163 10.3797V9.54639C6.04163 8.28073 7.06764 7.25472 8.33329 7.25472H11.8244L11.2247 6.655C10.9806 6.41092 10.9806 6.01519 11.2247 5.77111ZM6.22468 13.3217L7.89135 14.9883C8.13543 15.2324 8.53116 15.2324 8.77523 14.9883C9.01931 14.7443 9.01931 14.3485 8.77523 14.1044L8.17551 13.5047H11.6666C12.9323 13.5047 13.9583 12.4787 13.9583 11.2131V10.3797C13.9583 10.0345 13.6785 9.75472 13.3333 9.75472C12.9881 9.75472 12.7083 10.0345 12.7083 10.3797V11.2131C12.7083 11.7884 12.2419 12.2547 11.6666 12.2547H6.66663C6.41384 12.2547 6.18594 12.407 6.0892 12.6405C5.99246 12.8741 6.04594 13.1429 6.22468 13.3217Z" fill="#F5F5F5"/>
</svg>
