<svg width="20" height="21" viewBox="0 0 20 21" fill="none" xmlns="http://www.w3.org/2000/svg">
<path d="M4.16667 7.1665L4.16667 15.4998C4.16667 17.3408 5.65905 18.8332 7.5 18.8332L12.5 18.8332C14.341 18.8332 15.8333 17.3408 15.8333 15.4998L15.8333 7.1665M11.6667 9.6665L11.6667 14.6665M8.33333 9.6665L8.33334 14.6665M13.3333 4.6665L12.1614 2.90867C11.8523 2.445 11.3319 2.1665 10.7747 2.1665L9.22531 2.1665C8.66805 2.1665 8.14767 2.445 7.83856 2.90867L6.66667 4.6665M13.3333 4.6665L6.66667 4.6665M13.3333 4.6665L17.5 4.6665M6.66667 4.6665L2.5 4.6665" stroke="#F5F5F5" stroke-linecap="round" stroke-linejoin="round"/>
</svg>
