<svg width="20" height="20" viewBox="0 0 20 20" fill="none" xmlns="http://www.w3.org/2000/svg">
<path d="M7.50002 10.8333L8.82151 9.51184C9.47238 8.86097 10.5277 8.86097 11.1785 9.51184L12.5 10.8333M10 9.16667V13.3333M18.3334 8.33333V14.1667C18.3334 16.0076 16.841 17.5 15 17.5H5.00002C3.15907 17.5 1.66669 16.0076 1.66669 14.1667V5.83333C1.66669 3.99238 3.15907 2.5 5.00002 2.5H7.22224C7.94348 2.5 8.64526 2.73393 9.22224 3.16667L10.7778 4.33333C11.3548 4.76607 12.0566 5 12.7778 5H15C16.841 5 18.3334 6.49238 18.3334 8.33333Z" stroke="#F5F5F5" stroke-linecap="round"/>
</svg>
