<svg width="33" height="32" viewBox="0 0 33 32" fill="none" xmlns="http://www.w3.org/2000/svg">
<path d="M7.39464 18.7083C7.39133 19.0021 7.46561 19.2966 7.61748 19.5599L9.6495 23.0827C9.94713 23.5987 10.4975 23.9166 11.0932 23.9166H21.9056C22.5013 23.9166 23.0517 23.5987 23.3493 23.0827L25.3814 19.5599C25.5332 19.2966 25.6075 19.0021 25.6042 18.7083H7.39464Z" fill="#4285F4"/>
<path d="M22.7457 23.6893L13.6309 7.90191C13.8848 7.7505 14.1787 7.66669 14.4845 7.66669H18.5139C19.1094 7.66669 19.6596 7.98435 19.9573 8.50002L25.3808 17.8938C25.6784 18.4093 25.6786 19.0443 25.3812 19.5599L23.3492 23.0828C23.2017 23.3385 22.9921 23.5455 22.7457 23.6893Z" fill="#FBBC04"/>
<path d="M19.3678 7.90191C19.1139 7.7505 18.82 7.66669 18.5141 7.66669H14.4847C13.8893 7.66669 13.3391 7.98435 13.0413 8.50002L7.61782 17.8938C7.32022 18.4093 7.32009 19.0443 7.61748 19.5599L9.6495 23.0828C9.79698 23.3385 10.0065 23.5455 10.2529 23.6894L19.3678 7.90191Z" fill="#34A853"/>
<path d="M25.6052 18.7083C25.6085 19.0021 25.5342 19.2966 25.3823 19.5599L23.3503 23.0827C23.2028 23.3384 22.9933 23.5455 22.7469 23.6893L19.8711 18.7083H25.6052Z" fill="#EA4335"/>
<path d="M19.3676 7.90191C19.1137 7.7505 18.8198 7.66669 18.5139 7.66669H14.4845C14.1787 7.66669 13.8848 7.7505 13.6309 7.90191L16.4992 12.8701L19.3676 7.90191Z" fill="#188038"/>
<path d="M7.39464 18.7083C7.39133 19.0021 7.46561 19.2966 7.61748 19.5599L9.6495 23.0827C9.79698 23.3384 10.0065 23.5455 10.2529 23.6893L13.1287 18.7083H7.39464Z" fill="#1967D2"/>
</svg>
