<svg width="32" height="32" viewBox="0 0 32 32" fill="none" xmlns="http://www.w3.org/2000/svg">
<path d="M8.5 23.5H23.5M17.487 10.4264C17.487 10.4264 17.487 11.7886 18.8492 13.1508C20.2114 14.513 21.5736 14.513 21.5736 14.513M12.0997 20.9901L14.9603 20.5814C15.3729 20.5225 15.7553 20.3313 16.05 20.0365L22.9358 13.1508C23.6881 12.3985 23.6881 11.1787 22.9358 10.4264L21.5736 9.06424C20.8213 8.31192 19.6015 8.31192 18.8492 9.06424L11.9635 15.95C11.6687 16.2447 11.4775 16.6271 11.4186 17.0397L11.0099 19.9003C10.9191 20.536 11.464 21.0809 12.0997 20.9901Z" stroke="#F5F5F5" stroke-linecap="round"/>
</svg>
