<svg width="20" height="20" viewBox="0 0 20 20" fill="none" xmlns="http://www.w3.org/2000/svg">
<path fill-rule="evenodd" clip-rule="evenodd" d="M12.603 4.07048C12.6137 4.08 12.6244 4.08955 12.6352 4.09912L15.9801 7.07232C16.6042 7.62706 17.1216 8.08693 17.4768 8.50439C17.8502 8.94314 18.116 9.41552 18.116 10.0001C18.116 10.5846 17.8502 11.057 17.4768 11.4957C17.1216 11.9132 16.6042 12.373 15.9801 12.9278L12.6352 15.901C12.6244 15.9106 12.6137 15.9201 12.603 15.9296C12.3326 16.17 12.0803 16.3944 11.8623 16.5383C11.6483 16.6796 11.259 16.8849 10.8229 16.6891C10.3869 16.4933 10.2817 16.066 10.2451 15.8121C10.2079 15.5535 10.2079 15.2159 10.208 14.8541C10.208 14.8398 10.208 14.8254 10.208 14.811V13.5039C8.99843 13.5873 7.7727 13.9085 6.70053 14.4309C5.43974 15.0453 4.43284 15.9164 3.88638 16.9572C3.75272 17.2118 3.46259 17.3424 3.1834 17.2735C2.90421 17.2047 2.70801 16.9543 2.70801 16.6667C2.70801 12.7326 3.85915 10.1709 5.50509 8.59609C6.93976 7.22338 8.68831 6.66011 10.208 6.54223V5.18909C10.208 5.17469 10.208 5.16032 10.208 5.14599C10.2079 4.78422 10.2079 4.44657 10.2451 4.18803C10.2817 3.93413 10.3869 3.50681 10.8229 3.31099C11.259 3.11517 11.6483 3.32047 11.8623 3.4618C12.0803 3.60573 12.3326 3.83009 12.603 4.07048ZM11.4606 4.73085C11.5548 4.8116 11.6673 4.91119 11.8048 5.03338L15.115 7.97582C15.7826 8.56922 16.233 8.97155 16.5248 9.31447C16.8051 9.64381 16.866 9.83614 16.866 10.0001C16.866 10.164 16.8051 10.3563 16.5248 10.6856C16.233 11.0286 15.7826 11.4309 15.115 12.0243L11.8048 14.9667C11.6673 15.0889 11.5548 15.1885 11.4606 15.2693C11.4583 15.1452 11.458 14.9949 11.458 14.811V12.8572C11.458 12.512 11.1782 12.2322 10.833 12.2322C9.2392 12.2322 7.58297 12.6105 6.15299 13.3073C5.38731 13.6803 4.67451 14.1509 4.06961 14.714C4.37692 12.1749 5.28502 10.5367 6.36926 9.49926C7.7193 8.20753 9.42503 7.76791 10.833 7.76791C11.1782 7.76791 11.458 7.48809 11.458 7.14291V5.18909C11.458 5.00517 11.4583 4.85492 11.4606 4.73085Z" fill="#F5F5F5"/>
</svg>
