<svg width="20" height="20" viewBox="0 0 20 20" fill="none" xmlns="http://www.w3.org/2000/svg">
<path d="M18.3337 9.99996C18.3337 14.6023 14.6027 18.3333 10.0003 18.3333M18.3337 9.99996C18.3337 5.39759 14.6027 1.66663 10.0003 1.66663M18.3337 9.99996C18.3337 8.61925 14.6027 7.49996 10.0003 7.49996C5.39795 7.49996 1.66699 8.61925 1.66699 9.99996M18.3337 9.99996C18.3337 11.3807 14.6027 12.5 10.0003 12.5C5.39795 12.5 1.66699 11.3807 1.66699 9.99996M10.0003 18.3333C5.39795 18.3333 1.66699 14.6023 1.66699 9.99996M10.0003 18.3333C11.8413 18.3333 13.3337 14.6023 13.3337 9.99996C13.3337 5.39759 11.8413 1.66663 10.0003 1.66663M10.0003 18.3333C8.15938 18.3333 6.66699 14.6023 6.66699 9.99996C6.66699 5.39759 8.15938 1.66663 10.0003 1.66663M1.66699 9.99996C1.66699 5.39759 5.39795 1.66663 10.0003 1.66663" stroke="#F5F5F5"/>
</svg>
