<svg width="20" height="20" viewBox="0 0 20 20" fill="none" xmlns="http://www.w3.org/2000/svg">
<path d="M8.24969 1.14587C8.24969 0.973374 8.11 0.833374 7.93719 0.833374C7.76438 0.833374 7.62469 0.973374 7.62469 1.14587C7.62469 2.42087 6.5875 3.45806 5.3125 3.45806C5.13969 3.45806 5 3.59806 5 3.77056C5 3.94306 5.13969 4.08306 5.3125 4.08306C6.5875 4.08306 7.62469 5.12025 7.62469 6.39525C7.62469 6.56775 7.76438 6.70775 7.93719 6.70775C8.11 6.70775 8.24969 6.56775 8.24969 6.39525C8.24969 5.12025 9.28688 4.08306 10.5619 4.08306C10.7347 4.08306 10.8744 3.94306 10.8744 3.77056C10.8744 3.59806 10.7347 3.45806 10.5619 3.45806C9.28688 3.45806 8.24969 2.42087 8.24969 1.14587ZM7.93719 5.07775C7.65344 4.51462 7.19344 4.05462 6.63 3.77056C7.19344 3.48681 7.65313 3.02681 7.93719 2.46337C8.22094 3.02681 8.68094 3.4865 9.24437 3.77056C8.68094 4.05462 8.22125 4.51431 7.93719 5.07775Z" fill="#F5F5F5" stroke="#F5F5F5" stroke-width="0.1"/>
<path d="M18.8946 12.6247C17.6196 12.6247 16.5824 11.5875 16.5824 10.3125C16.5824 10.14 16.4427 10 16.2699 10C16.0971 10 15.9574 10.14 15.9574 10.3125C15.9574 11.5875 14.9202 12.6247 13.6455 12.6247C13.4727 12.6247 13.333 12.7647 13.333 12.9372C13.333 13.1097 13.4727 13.2497 13.6455 13.2497C14.9202 13.2497 15.9574 14.2869 15.9574 15.5619C15.9574 15.7344 16.0971 15.8744 16.2699 15.8744C16.4427 15.8744 16.5824 15.7344 16.5824 15.5619C16.5824 14.2869 17.6196 13.2497 18.8946 13.2497C19.0674 13.2497 19.2071 13.1097 19.2071 12.9372C19.2071 12.7647 19.0674 12.6247 18.8946 12.6247ZM16.2699 14.2441C15.9861 13.6809 15.5261 13.2213 14.963 12.9372C15.5261 12.6531 15.9858 12.1934 16.2699 11.6303C16.5536 12.1934 17.0136 12.6531 17.5771 12.9372C17.0136 13.2213 16.5539 13.6809 16.2699 14.2441Z" fill="#F5F5F5" stroke="#F5F5F5" stroke-width="0.1"/>
<path d="M12.812 4.94476L15.3619 7.49461L4.63962 18.2169C4.05383 18.8027 3.10408 18.8027 2.5183 18.2169L2.08976 17.7883C1.50398 17.2026 1.50398 16.2528 2.08976 15.667L12.812 4.94476ZM16.069 6.7875L13.5191 4.23765L15.0145 2.74225C15.6003 2.15647 16.5501 2.15647 17.1359 2.74225L17.5644 3.17079C18.1502 3.75657 18.1502 4.70632 17.5644 5.29211L16.069 6.7875Z" stroke="#F5F5F5"/>
</svg>
