<svg width="33" height="32" viewBox="0 0 33 32" fill="none" xmlns="http://www.w3.org/2000/svg">
<path fill-rule="evenodd" clip-rule="evenodd" d="M24 7.875L19 7.875C18.6548 7.875 18.375 8.15482 18.375 8.5C18.375 8.84518 18.6548 9.125 19 9.125L22.4911 9.125L14.3914 17.2247C14.1473 17.4688 14.1473 17.8645 14.3914 18.1086C14.6355 18.3527 15.0312 18.3527 15.2753 18.1086L23.375 10.0089L23.375 13.5C23.375 13.8452 23.6548 14.125 24 14.125C24.3452 14.125 24.625 13.8452 24.625 13.5L24.625 8.5C24.625 8.15482 24.3452 7.875 24 7.875ZM12.3333 9.54167C10.1472 9.54167 8.375 11.3139 8.375 13.5V20.1667C8.375 22.3528 10.1472 24.125 12.3333 24.125H19C21.1861 24.125 22.9583 22.3528 22.9583 20.1667V16C22.9583 15.6548 22.6785 15.375 22.3333 15.375C21.9882 15.375 21.7083 15.6548 21.7083 16V20.1667C21.7083 21.6624 20.4958 22.875 19 22.875H12.3333C10.8376 22.875 9.625 21.6624 9.625 20.1667V13.5C9.625 12.0042 10.8376 10.7917 12.3333 10.7917H16.5C16.8452 10.7917 17.125 10.5118 17.125 10.1667C17.125 9.82149 16.8452 9.54167 16.5 9.54167H12.3333Z" fill="#F5F5F5"/>
</svg>
