<svg width="18" height="18" viewBox="0 0 18 18" fill="none" xmlns="http://www.w3.org/2000/svg">
<g clip-path="url(#clip0_3751_30980)">
<path d="M16.5 9C16.5 4.85786 13.1421 1.5 9 1.5" stroke="#9C9CB8" stroke-width="1.125" stroke-linecap="round"/>
<path d="M16.5 9C16.5 13.1421 13.1421 16.5 9 16.5C4.85786 16.5 1.5 13.1421 1.5 9C1.5 4.85786 4.85786 1.5 9 1.5" stroke="#9C9CB8" stroke-width="1.125" stroke-linecap="round" stroke-linejoin="round" stroke-dasharray="0.38 2.25"/>
<path d="M10.125 9C10.125 9.62132 9.62132 10.125 9 10.125C8.37868 10.125 7.875 9.62132 7.875 9C7.875 8.37868 8.37868 7.875 9 7.875C9.62132 7.875 10.125 8.37868 10.125 9Z" stroke="#9C9CB8" stroke-width="1.125"/>
<path d="M10.125 9H12M9 4.5V7.875" stroke="#9C9CB8" stroke-width="1.125" stroke-linecap="round" stroke-linejoin="round"/>
</g>
<defs>
<clipPath id="clip0_3751_30980">
<rect width="18" height="18" fill="white"/>
</clipPath>
</defs>
</svg>
