<svg width="21" height="20" viewBox="0 0 21 20" fill="none" xmlns="http://www.w3.org/2000/svg">
<path d="M2.16602 5.00002L1.66602 5.00002L2.16602 5.00002ZM5.49935 1.66669L5.49935 1.16669L5.49935 1.66669ZM5.49935 18.3334L5.49935 18.8334H5.49935V18.3334ZM2.16602 15L2.66602 15L2.16602 15ZM18.8327 15L19.3327 15V15H18.8327ZM15.4993 18.3334L15.4993 17.8334H15.4993V18.3334ZM18.8327 5.00002L18.3327 5.00002V5.00002H18.8327ZM15.4993 1.66669L15.4993 2.16669L15.4993 1.66669ZM14.166 5.83335L14.166 6.33335L15.166 6.33335L15.166 5.83335L14.166 5.83335ZM15.166 2.50002L15.166 2.00002L14.166 2.00002L14.166 2.50002L15.166 2.50002ZM10.9994 2.50002L10.9994 2.00002L9.99935 2.00002L9.99935 2.50002L10.9994 2.50002ZM9.99935 17.5L9.99935 18L10.9993 18L10.9993 17.5L9.99935 17.5ZM14.166 17.5L14.166 18L15.166 18L15.166 17.5L14.166 17.5ZM15.166 14.1667L15.166 13.6667L14.166 13.6667L14.166 14.1667L15.166 14.1667ZM5.83268 5.83335L5.83268 6.33335L6.83268 6.33335L6.83268 5.83335L5.83268 5.83335ZM6.83268 2.50002L6.83268 2.00002L5.83268 2.00002L5.83268 2.50002L6.83268 2.50002ZM5.83268 17.5L5.83268 18L6.83268 18L6.83268 17.5L5.83268 17.5ZM6.83268 14.1667L6.83268 13.6667L5.83268 13.6667L5.83268 14.1667L6.83268 14.1667ZM18.8327 6.33335C19.1088 6.33335 19.3327 6.1095 19.3327 5.83335C19.3327 5.55721 19.1088 5.33335 18.8327 5.33335L18.8327 6.33335ZM2.16602 5.33335C1.88987 5.33335 1.66602 5.55721 1.66602 5.83335C1.66602 6.1095 1.88987 6.33335 2.16602 6.33335L2.16602 5.33335ZM18.8327 14.6667C19.1088 14.6667 19.3327 14.4428 19.3327 14.1667C19.3327 13.8905 19.1088 13.6667 18.8327 13.6667L18.8327 14.6667ZM2.16602 13.6667C1.88987 13.6667 1.66602 13.8905 1.66602 14.1667C1.66602 14.4428 1.88987 14.6667 2.16602 14.6667L2.16602 13.6667ZM18.3327 5.00002V15H19.3327V5.00002H18.3327ZM15.4993 17.8334H5.49935V18.8334H15.4993V17.8334ZM2.66602 15L2.66602 5.00002L1.66602 5.00002L1.66602 15L2.66602 15ZM5.49935 2.16669L15.4993 2.16669L15.4993 1.16669L5.49935 1.16669L5.49935 2.16669ZM2.66602 5.00002C2.66602 3.43521 3.93454 2.16669 5.49935 2.16669L5.49935 1.16669C3.38226 1.16669 1.66602 2.88293 1.66602 5.00002L2.66602 5.00002ZM5.49935 17.8334C3.93454 17.8334 2.66602 16.5648 2.66602 15L1.66602 15C1.66602 17.1171 3.38226 18.8334 5.49935 18.8334L5.49935 17.8334ZM18.3327 15C18.3327 16.5648 17.0642 17.8334 15.4993 17.8334L15.4993 18.8334C17.6164 18.8334 19.3327 17.1171 19.3327 15L18.3327 15ZM19.3327 5.00002C19.3327 2.88293 17.6164 1.16669 15.4993 1.16669L15.4993 2.16669C17.0642 2.16669 18.3327 3.43521 18.3327 5.00002L19.3327 5.00002ZM15.166 5.83335L15.166 2.50002L14.166 2.50002L14.166 5.83335L15.166 5.83335ZM15.166 17.5L15.166 14.1667L14.166 14.1667L14.166 17.5L15.166 17.5ZM6.83268 5.83335L6.83268 2.50002L5.83268 2.50002L5.83268 5.83335L6.83268 5.83335ZM6.83268 17.5L6.83268 14.1667L5.83268 14.1667L5.83268 17.5L6.83268 17.5ZM18.8327 5.33335L2.16602 5.33335L2.16602 6.33335L18.8327 6.33335L18.8327 5.33335ZM18.8327 13.6667L2.16602 13.6667L2.16602 14.6667L18.8327 14.6667L18.8327 13.6667ZM10.9993 17.5L10.9994 2.50002L9.99935 2.50002L9.99935 17.5L10.9993 17.5Z" fill="#F5F5F5"/>
</svg>
