<svg width="24" height="24" viewBox="0 0 24 24" fill="none" xmlns="http://www.w3.org/2000/svg">
<path d="M7.25003 7C7.25003 4.37665 9.37668 2.25 12 2.25C14.6234 2.25 16.75 4.37665 16.75 7C16.75 9.62335 14.6234 11.75 12 11.75C9.37668 11.75 7.25003 9.62335 7.25003 7Z" fill="black"/>
<path d="M9.03422 13.8399C9.97449 13.4505 10.9823 13.25 12 13.25C13.0178 13.25 14.0255 13.4505 14.9658 13.8399C15.9061 14.2294 16.7604 14.8003 17.4801 15.5199C18.1997 16.2396 18.7706 17.0939 19.1601 18.0342C19.408 18.6326 19.5793 19.2584 19.6711 19.8966C19.8252 20.9681 18.9322 21.75 18 21.75H6.00002C5.06779 21.75 4.17484 20.9681 4.32896 19.8966C4.42077 19.2584 4.59208 18.6326 4.83995 18.0342C5.22942 17.0939 5.80028 16.2396 6.51994 15.5199C7.23959 14.8003 8.09394 14.2294 9.03422 13.8399Z" fill="black"/>
</svg>
