<svg width="33" height="32" viewBox="0 0 33 32" fill="none" xmlns="http://www.w3.org/2000/svg">
<g clip-path="url(#clip0_1368_15556)">
<path d="M26.1014 11.1545C25.9883 10.729 25.7654 10.3407 25.4551 10.0284C25.1448 9.7161 24.7579 9.49078 24.3332 9.37498C22.7695 8.95453 16.5195 8.95453 16.5195 8.95453C16.5195 8.95453 10.2695 8.95453 8.70589 9.37498C8.28114 9.49078 7.89425 9.7161 7.58394 10.0284C7.27363 10.3407 7.05079 10.729 6.93771 11.1545C6.51953 12.725 6.51953 16 6.51953 16C6.51953 16 6.51953 19.275 6.93771 20.8454C7.05079 21.2709 7.27363 21.6593 7.58394 21.9716C7.89425 22.2839 8.28114 22.5092 8.70589 22.625C10.2695 23.0454 16.5195 23.0454 16.5195 23.0454C16.5195 23.0454 22.7695 23.0454 24.3332 22.625C24.7579 22.5092 25.1448 22.2839 25.4551 21.9716C25.7654 21.6593 25.9883 21.2709 26.1014 20.8454C26.5195 19.275 26.5195 16 26.5195 16C26.5195 16 26.5195 12.725 26.1014 11.1545Z" fill="#FF0302"/>
<path d="M14.4746 18.9739V13.0262L19.7019 16L14.4746 18.9739Z" fill="#FEFEFE"/>
</g>
<defs>
<clipPath id="clip0_1368_15556">
<rect width="20" height="20" fill="white" transform="translate(6.5 6)"/>
</clipPath>
</defs>
</svg>
