<svg width="20" height="20" viewBox="0 0 20 20" fill="none" xmlns="http://www.w3.org/2000/svg">
<path d="M3.33398 5.83341C3.33398 4.91294 4.08018 4.16675 5.00065 4.16675H6.66732C7.58779 4.16675 8.33398 4.91294 8.33398 5.83341V14.1667C8.33398 15.0872 7.58779 15.8334 6.66732 15.8334H5.00065C4.08018 15.8334 3.33398 15.0872 3.33398 14.1667V5.83341Z" stroke="#F5F5F5" stroke-width="1.5"/>
<path d="M11.6673 5.83341C11.6673 4.91294 12.4135 4.16675 13.334 4.16675H15.0007C15.9211 4.16675 16.6673 4.91294 16.6673 5.83341V14.1667C16.6673 15.0872 15.9211 15.8334 15.0007 15.8334H13.334C12.4135 15.8334 11.6673 15.0872 11.6673 14.1667V5.83341Z" stroke="#F5F5F5" stroke-width="1.5"/>
</svg>
