<svg width="25" height="25" viewBox="0 0 25 25" fill="none" xmlns="http://www.w3.org/2000/svg">
<path d="M12.5 0C12.2514 5.23971e-09 12.0129 0.0987719 11.8371 0.274587C11.6613 0.450403 11.5625 0.68886 11.5625 0.9375C11.5625 1.18614 11.6613 1.4246 11.8371 1.60041C12.0129 1.77623 12.2514 1.875 12.5 1.875C12.7486 1.875 12.9871 1.77623 13.1629 1.60041C13.3387 1.4246 13.4375 1.18614 13.4375 0.9375C13.4375 0.68886 13.3387 0.450403 13.1629 0.274587C12.9871 0.0987719 12.7486 5.23971e-09 12.5 0ZM15.9399 0.515137C15.7129 0.511029 15.4922 0.58943 15.3186 0.735784C15.145 0.882138 15.0304 1.0865 14.9961 1.31094C14.9618 1.53537 15.0101 1.76462 15.1321 1.95614C15.254 2.14765 15.4413 2.28842 15.6592 2.35229C18.9845 3.38651 21.6135 6.01548 22.6477 9.34082C22.6842 9.45841 22.7436 9.56765 22.8224 9.6623C22.9011 9.75696 22.9978 9.83517 23.1068 9.89247C23.2157 9.94978 23.335 9.98505 23.4576 9.99629C23.5802 10.0075 23.7038 9.99449 23.8214 9.95794C23.939 9.92139 24.0483 9.86203 24.1429 9.78326C24.2375 9.70449 24.3158 9.60785 24.3731 9.49886C24.4304 9.38986 24.4656 9.27065 24.4768 9.14803C24.4881 9.0254 24.475 8.90177 24.4385 8.78418C23.2202 4.86701 20.133 1.77981 16.2158 0.561523C16.1267 0.532352 16.0337 0.516716 15.9399 0.515137ZM9.03198 0.516357C8.94773 0.520198 8.86437 0.535391 8.78418 0.561523C4.86701 1.77981 1.77981 4.86701 0.561523 8.78418C0.524956 8.90177 0.51191 9.02541 0.52313 9.14804C0.534349 9.27067 0.569615 9.38989 0.626912 9.49889C0.68421 9.60789 0.762417 9.70454 0.857069 9.78331C0.95172 9.86209 1.06096 9.92144 1.17855 9.958C1.29615 9.99455 1.41979 10.0076 1.54242 9.99634C1.66505 9.98511 1.78426 9.94983 1.89326 9.89252C2.00225 9.83521 2.09889 9.75699 2.17765 9.66233C2.25641 9.56767 2.31576 9.45842 2.35229 9.34082C3.38651 6.01549 6.01548 3.38651 9.34082 2.35229C9.56072 2.2875 9.74927 2.14439 9.87081 1.95001C9.99235 1.75564 10.0385 1.52346 10.0004 1.29739C9.96241 1.07132 9.84287 0.86701 9.66442 0.723096C9.48597 0.579182 9.26098 0.505634 9.03198 0.516357ZM17.7258 6.25366C17.6343 6.26202 17.5426 6.28364 17.4548 6.31958C16.8936 6.55083 11.9215 8.62653 10.2747 10.2747C8.62716 11.9222 6.55143 16.8936 6.3208 17.4548C6.1758 17.8067 6.25767 18.2121 6.52954 18.4802C6.70829 18.6565 6.94562 18.75 7.1875 18.75C7.31187 18.75 7.438 18.7249 7.55737 18.6743C8.13425 18.4268 13.2341 16.216 14.7253 14.7253C16.2166 13.2347 18.4274 8.13425 18.6743 7.55737C18.8243 7.20675 18.7477 6.79957 18.4802 6.52832C18.2787 6.32488 18.0005 6.22858 17.7258 6.25366ZM0.9375 11.5625C0.68886 11.5625 0.450403 11.6613 0.274587 11.8371C0.0987719 12.0129 0 12.2514 0 12.5C0 12.7486 0.0987719 12.9871 0.274587 13.1629C0.450403 13.3387 0.68886 13.4375 0.9375 13.4375C1.18614 13.4375 1.4246 13.3387 1.60041 13.1629C1.77623 12.9871 1.875 12.7486 1.875 12.5C1.875 12.2514 1.77623 12.0129 1.60041 11.8371C1.4246 11.6613 1.18614 11.5625 0.9375 11.5625ZM12.5 11.5625C13.0175 11.5625 13.4375 11.9825 13.4375 12.5C13.4375 13.0175 13.0175 13.4375 12.5 13.4375C11.9825 13.4375 11.5625 13.0175 11.5625 12.5C11.5625 11.9825 11.9825 11.5625 12.5 11.5625ZM24.0625 11.5625C23.8139 11.5625 23.5754 11.6613 23.3996 11.8371C23.2238 12.0129 23.125 12.2514 23.125 12.5C23.125 12.7486 23.2238 12.9871 23.3996 13.1629C23.5754 13.3387 23.8139 13.4375 24.0625 13.4375C24.3111 13.4375 24.5496 13.3387 24.7254 13.1629C24.9012 12.9871 25 12.7486 25 12.5C25 12.2514 24.9012 12.0129 24.7254 11.8371C24.5496 11.6613 24.3111 11.5625 24.0625 11.5625ZM1.43799 14.9878C1.29124 14.9901 1.14709 15.0269 1.01714 15.0951C0.887187 15.1633 0.775068 15.2611 0.689805 15.3806C0.604542 15.5001 0.548515 15.6379 0.526234 15.7829C0.503953 15.928 0.516041 16.0763 0.561523 16.2158C1.77981 20.133 4.86701 23.2202 8.78418 24.4385C8.90177 24.475 9.0254 24.4881 9.14803 24.4768C9.27065 24.4656 9.38986 24.4304 9.49886 24.3731C9.60785 24.3158 9.70449 24.2375 9.78326 24.1429C9.86203 24.0483 9.92139 23.939 9.95794 23.8214C9.99449 23.7038 10.0075 23.5802 9.99629 23.4576C9.98505 23.335 9.94978 23.2157 9.89247 23.1068C9.83517 22.9978 9.75696 22.9011 9.6623 22.8224C9.56765 22.7436 9.45841 22.6842 9.34082 22.6477C6.01549 21.6135 3.38651 18.9845 2.35229 15.6592C2.29416 15.4628 2.1733 15.2908 2.00819 15.1695C1.84308 15.0483 1.64281 14.9845 1.43799 14.9878ZM23.5339 14.9878C23.3339 14.9905 23.14 15.0572 22.9806 15.178C22.8211 15.2987 22.7045 15.4674 22.6477 15.6592C21.6135 18.9845 18.9845 21.6135 15.6592 22.6477C15.5416 22.6842 15.4323 22.7436 15.3377 22.8224C15.243 22.9011 15.1648 22.9978 15.1075 23.1068C15.0502 23.2157 15.0149 23.335 15.0037 23.4576C14.9925 23.5802 15.0055 23.7038 15.0421 23.8214C15.0786 23.939 15.138 24.0483 15.2167 24.1429C15.2955 24.2375 15.3921 24.3158 15.5011 24.3731C15.6101 24.4304 15.7293 24.4656 15.852 24.4768C15.9746 24.4881 16.0982 24.475 16.2158 24.4385C20.133 23.2202 23.2202 20.133 24.4385 16.2158C24.4847 16.074 24.4964 15.9232 24.4727 15.776C24.4489 15.6288 24.3904 15.4893 24.3019 15.3692C24.2135 15.2492 24.0977 15.1519 23.9641 15.0856C23.8305 15.0192 23.6831 14.9857 23.5339 14.9878ZM12.5 23.125C12.2514 23.125 12.0129 23.2238 11.8371 23.3996C11.6613 23.5754 11.5625 23.8139 11.5625 24.0625C11.5625 24.3111 11.6613 24.5496 11.8371 24.7254C12.0129 24.9012 12.2514 25 12.5 25C12.7486 25 12.9871 24.9012 13.1629 24.7254C13.3387 24.5496 13.4375 24.3111 13.4375 24.0625C13.4375 23.8139 13.3387 23.5754 13.1629 23.3996C12.9871 23.2238 12.7486 23.125 12.5 23.125Z" fill="white"/>
</svg>
