<svg width="20" height="24" viewBox="0 0 20 24" fill="none" xmlns="http://www.w3.org/2000/svg">
<path d="M9.6 0C6.29695 0 3.6 2.69695 3.6 6C3.6 9.30305 6.29695 12 9.6 12C12.9031 12 15.6 9.30305 15.6 6C15.6 2.69695 12.9031 0 9.6 0ZM9.6 1.8C11.9303 1.8 13.8 3.66974 13.8 6C13.8 8.33026 11.9303 10.2 9.6 10.2C7.26974 10.2 5.4 8.33026 5.4 6C5.4 3.66974 7.26974 1.8 9.6 1.8ZM2.7 14.4C1.2195 14.4 0 15.6195 0 17.1V17.8195C0 19.584 1.11883 21.1668 2.82539 22.2551C4.53195 23.3434 6.8669 24 9.6 24C12.3331 24 14.668 23.3434 16.3746 22.2551C18.0812 21.1668 19.2 19.584 19.2 17.8195V17.1C19.2 15.6195 17.9805 14.4 16.5 14.4H2.7ZM2.7 16.2H16.5C17.0079 16.2 17.4 16.5921 17.4 17.1V17.8195C17.4 18.8186 16.7565 19.8767 15.4066 20.7375C14.0568 21.5983 12.0413 22.2 9.6 22.2C7.1587 22.2 5.1432 21.5983 3.79336 20.7375C2.44352 19.8767 1.8 18.8186 1.8 17.8195V17.1C1.8 16.5921 2.1921 16.2 2.7 16.2Z" fill="white"/>
</svg>
